{"title":"Age.Of.The.Dead.2015.AR-SUB.HDRip.XviD.AC3-N33B","uid":12174819,"size":1118577491,"categoryP":"video","categoryS":"movies","magnet":"?xt=urn:btih:d6741ef78d9bb4b4fb4fb786b47bbf2ef5f0eb14&amp;dn=Age.Of.The.Dead.2015.AR-SUB.HDRip.XviD.AC3-N33B&amp;tr=udp%3A%2F%2Ftracker.openbittorrent.com%3A80&amp;tr=udp%3A%2F%2Fopen.demonii.com%3A1337&amp;tr=udp%3A%2F%2Ftracker.coppersurfer.tk%3A6969&amp;tr=udp%3A%2F%2Fexodus.desync.com%3A6969","seeders":13,"leechers":7,"uploader":"xxxlavalxxx","files":4,"time":1438293130,"description":" &lt;a href=&quot;http://extraimago.com/image/OZY&quot; rel=&quot;nofollow&quot; target=&quot;_NEW&quot;&gt;http://extraimago.com/image/OZY&lt;/a&gt;\n &lt;a href=&quot;\nhttp://www.imdb.com/title/tt3950908/&quot; rel=&quot;nofollow&quot; target=&quot;_NEW&quot;&gt;\nhttp://www.imdb.com/title/tt3950908/&lt;/a&gt;\n\n\nIn a world ravaged by a rabies virus that turns people into hungry cannibals, Alice a pregnant survivor, along with two other men, struggles to reach an island unaffected by the plague. Meanwhile a dangerous man is on the trail of a mysterious girl, and Alice soon discovers that zombies are not the only threat.\n\nDirector: Francesco Picone\nWriters: Francesco Picone (screenplay), Francesco Picone (story)\nStars: Aaron Stielstra, Michael Segal, Marius Bizau\nGenres: Drama | Horror\nCountry: Italy | Canada\nLanguage: English\n\n\nAge.Of.The.Dead.2015.AR-SUB.HDRip.XviD.AC3-N33B\n &lt;a href=&quot;\nhttp://www.imdb.com/title/tt3950908/&quot; rel=&quot;nofollow&quot; target=&quot;_NEW&quot;&gt;\nhttp://www.imdb.com/title/tt3950908/&lt;/a&gt;\nSource: 720p.AnSa [THANKS]\n\nBLURRED TOP LEFT LOGO, it has arab subs\n\nGeneral\nComplete name: Age.Of.The.Dead.2015.AR-SUB.HDRip.XviD.AC3-N33B.avi\nFormat: AVI\nFormat/Info: Audio Video Interleave\nFile size: 1.02 GiB\nDuration: 1h 24mn\nOverall bit rate: 1 736 Kbps\n\nVideo\nID: 0\nFormat: MPEG-4 Visual\nFormat profile: Advanced Simple@L5\nFormat settings, BVOP: 2\nFormat settings, QPel: No\nFormat settings, GMC: No warppoints\nFormat settings, Matrix: Default (H.263)\nMuxing mode: Packed bitstream\nCodec ID: XVID\nCodec ID/Hint: XviD\nDuration: 1h 24mn\nBit rate: 1 537 Kbps\nWidth: 720 pixels\nHeight: 304 pixels\nDisplay aspect ratio: 2.35:1\nFrame rate: 25.000 fps\nColor space: YUV\nChroma subsampling: 4:2:0\nBit depth: 8 bits\nScan type: Progressive\nCompression mode: Lossy\nBits/(Pixel*Frame): 0.281\nStream size: 923 MiB (89%)\nWriting library: XviD 64\n\nAudio\nID: 1\nFormat: AC-3\nFormat/Info: Audio Coding 3\nMode extension: CM (complete main)\nFormat settings, Endianness: Big\nCodec ID: 2000\nDuration: 1h 24mn\nBit rate mode: Constant\nBit rate: 192 Kbps\nChannel(s): 2 channels\nChannel positions: Front: L R\nSampling rate: 44.1 KHz\nCompression mode: Lossy\nStream size: 115 MiB (11%)\nAlignment: Aligned on interleaves\nInterleave, duration: 70 ms (1.74 video frames)\nInterleave, preload duration: 208 ms \n\n &lt;a href=&quot;\nhttp://extraimago.com/image/OZp&quot; rel=&quot;nofollow&quot; target=&quot;_NEW&quot;&gt;\nhttp://extraimago.com/image/OZp&lt;/a&gt; &lt;a href=&quot;\nhttp://extraimago.com/image/OZr&quot; rel=&quot;nofollow&quot; target=&quot;_NEW&quot;&gt;\nhttp://extraimago.com/image/OZr&lt;/a&gt; &lt;a href=&quot;\nhttp://extraimago.com/image/OZG&quot; rel=&quot;nofollow&quot; target=&quot;_NEW&quot;&gt;\nhttp://extraimago.com/image/OZG&lt;/a&gt; &lt;a href=&quot;\nhttp://extraimago.com/image/OZP&quot; rel=&quot;nofollow&quot; target=&quot;_NEW&quot;&gt;\nhttp://extraimago.com/image/OZP&lt;/a&gt; &lt;a href=&quot;\nhttp://extraimago.com/image/OZX&quot; rel=&quot;nofollow&quot; target=&quot;_NEW&quot;&gt;\nhttp://extraimago.com/image/OZX&lt;/a&gt; &lt;a href=&quot;\nhttp://extraimago.com/image/OZg&quot; rel=&quot;nofollow&quot; target=&quot;_NEW&quot;&gt;\nhttp://extraimago.com/image/OZg&lt;/a&gt;","torrent":{"xt":"urn:btih:d6741ef78d9bb4b4fb4fb786b47bbf2ef5f0eb14","amp;dn":"Age.Of.The.Dead.2015.AR-SUB.HDRip.XviD.AC3-N33B","amp;tr":["udp%3A%2F%2Ftracker.openbittorrent.com%3A80","udp%3A%2F%2Fopen.demonii.com%3A1337","udp%3A%2F%2Ftracker.coppersurfer.tk%3A6969","udp%3A%2F%2Fexodus.desync.com%3A6969"],"infoHash":"d6741ef78d9bb4b4fb4fb786b47bbf2ef5f0eb14","infoHashBuffer":{"type":"Buffer","data":[214,116,30,247,141,155,180,180,251,79,183,134,180,123,191,46,245,240,235,20]},"announce":[],"urlList":[]}}